<svg version="1.2" xmlns="http://www.w3.org/2000/svg" viewBox="0 0 721 128" width="721" height="128">
	<title>Лого FinovexPro (полностью черный)</title>
	<style>
		.s0 { fill: #000000 } 
	</style>
	<g>
		<g id="_Слой_1">
			<g>
				<path class="s0" d="m183.6 23.8v12.4h-28.7v19.7h22v12.2h-22v32.4h-13.8v-76.7z"/>
				<path class="s0" d="m194.3 29.8c-1.6-1.7-2.4-3.9-2.4-6.4 0-2.5 0.8-4.7 2.4-6.4 1.6-1.7 3.6-2.6 6.1-2.6 2.5 0 4.5 0.9 6.1 2.6 1.6 1.7 2.4 3.9 2.4 6.4 0 2.5-0.8 4.7-2.4 6.4-1.6 1.7-3.6 2.6-6.1 2.6-2.5 0-4.5-0.9-6.1-2.6zm12.9 9.8v60.9h-13.8v-60.9z"/>
				<path class="s0" d="m266.9 45.6q6 6.9 6 19.2v35.7h-13.8v-33.6c0-4.8-1.1-8.6-3.3-11.2-2.2-2.6-5.1-3.9-8.9-3.9q-5.7 0-9 3.9c-2.2 2.6-3.3 6.3-3.3 11.2v33.6h-13.8v-60.9h13.8v7.6c1.8-2.6 4.2-4.7 7.1-6.2 2.9-1.5 6-2.3 9.4-2.3 6.5 0 11.8 2.3 15.8 6.9z"/>
				<path class="s0" d="m296.1 97.6c-4.2-2.6-7.5-6.3-9.9-11q-3.6-7.2-3.6-16.5c0-6.2 1.2-11.7 3.7-16.5 2.5-4.8 5.8-8.4 10.1-11 4.3-2.6 9-3.9 14.3-3.9 5.3 0 10 1.3 14.3 3.9 4.3 2.6 7.6 6.3 10.1 11 2.5 4.8 3.7 10.3 3.7 16.5 0 6.2-1.3 11.7-3.8 16.5-2.5 4.8-6 8.4-10.3 11-4.3 2.6-9.1 3.9-14.5 3.9-5.4 0-10-1.3-14.2-3.9zm21.2-11.6c2.2-1.4 4-3.4 5.3-6.1 1.3-2.7 2-6 2-9.9 0-5.8-1.4-10.2-4.1-13.4-2.7-3.1-6.1-4.7-10-4.7-3.9 0-7.2 1.6-9.9 4.7-2.7 3.1-4 7.6-4 13.4 0 5.8 1.3 10.2 3.9 13.4 2.6 3.1 5.9 4.7 9.8 4.7 3.9 0 4.8-0.7 7.1-2z"/>
				<path class="s0" d="m371.7 86.3l13.8-46.7h14.7l-20.2 60.9h-16.8l-20.1-60.9h14.8z"/>
				<path class="s0" d="m458.4 74.7h-40c0.3 4.4 1.7 7.8 4.1 10.3 2.4 2.5 5.4 3.7 9 3.7 5.1 0 8.8-2.5 10.9-7.4h14.9c-1.6 5.9-4.6 10.7-9.1 14.5q-6.7 5.7-16.5 5.7c-6.5 0-10-1.3-14.2-3.9-4.2-2.6-7.4-6.3-9.8-11-2.3-4.8-3.5-10.3-3.5-16.5 0-6.2 1.2-11.8 3.5-16.6 2.3-4.8 5.5-8.4 9.7-11 4.1-2.6 8.9-3.8 14.3-3.8 5.4 0 9.8 1.2 14 3.7 4.1 2.5 7.3 6 9.6 10.6 2.3 4.6 3.4 9.8 3.4 15.8 0 6 0 4.2-0.4 5.9zm-13.9-10.4c0-4-1.3-7.1-3.8-9.5-2.5-2.4-5.6-3.6-9.2-3.6-3.6 0-6.3 1.2-8.6 3.5-2.3 2.3-3.8 5.5-4.3 9.6z"/>
				<path class="s0" d="m499.1 100.5l-11.2-18.9-10 18.9h-14.8l17.9-30.6-18.1-30.3h15.6l11.1 18.8 10.1-18.8h14.8l-18 30.3 18.2 30.6z"/>
				<path class="s0" d="m569.8 59.1c-1.7 3.6-4.5 6.5-8.2 8.7q-5.6 3.3-14.1 3.3h-11.5v29.5h-13.8v-76.7h25.4c5.3 0 9.9 1 13.6 3.1 3.7 2.1 6.6 4.9 8.4 8.5 1.9 3.6 2.8 7.7 2.8 12.2 0 4.5-0.9 8-2.6 11.5zm-14.4-3.4c1.8-1.9 2.8-4.7 2.8-8.2 0-7.5-3.7-11.2-11.2-11.2h-10.9v22.3h10.9c3.8 0 6.6-1 8.5-2.9z"/>
				<path class="s0" d="m617.7 100.5l-15.2-29.9h-6.5v29.9h-13.8v-76.7h25.8c5.3 0 9.9 1 13.6 3.1 3.7 2.1 6.6 4.9 8.4 8.5 1.9 3.6 2.8 7.5 2.8 11.9 0 4.4-1.3 9.6-3.9 13.7q-3.9 6.2-11.7 8.4l16.5 31.1zm-21.7-41.4h11.5q5.5 0 8.4-3c1.8-2 2.8-4.8 2.8-8.4 0-3.6-0.9-6.2-2.8-8.2-1.8-1.9-4.6-2.9-8.4-2.9h-11.5z"/>
				<path class="s0" d="m659.6 96.2c-5.4-3.4-9.7-8-12.8-14-3.2-6-4.7-12.7-4.7-20.3 0-7.6 1.6-14.2 4.7-20.2 3.2-6 7.4-10.6 12.8-14 5.4-3.4 11.3-5.1 17.8-5.1 6.5 0 12.4 1.7 17.8 5.1 5.4 3.4 9.6 8 12.7 14 3.1 6 4.7 12.7 4.7 20.2 0 7.5-1.6 14.3-4.7 20.3-3.1 6-7.4 10.6-12.8 14-5.4 3.4-11.3 5.1-17.8 5.1-6.5 0-12.4-1.7-17.8-5.1zm28.7-11.8c3.2-2.1 5.6-5.1 7.4-9q2.7-5.8 2.7-13.5 0-7.7-2.7-13.5c-1.8-3.9-4.2-6.8-7.4-8.9-3.2-2.1-6.8-3.1-10.9-3.1-4.1 0-7.8 1-11 3.1-3.2 2.1-5.7 5-7.4 8.9-1.7 3.9-2.7 8.3-2.7 13.5 0 5.2 0.9 9.6 2.7 13.5 1.8 3.9 4.3 6.9 7.4 9 3.2 2.1 6.9 3.1 11 3.1 4.1 0 7.8-1 10.9-3.1z"/>
			</g>
			<g>
				<path class="s0" d="m52.5 40.4v-16.7c-22.7 0.5-41 19-41 41.8 0 22.8 18.3 41.3 41 41.8v-15.7c-13.9-0.3-25.1-11.6-25.1-25.6 0-14 11.2-25.3 25.1-25.6z"/>
				<path class="s0" d="m52.5 40.4v51.2c13.9-0.3 25.1-11.6 25.1-25.6 0-14-11.2-25.3-25.1-25.6z"/>
				<path class="s0" d="m52.5 7v16.7h0.5c22.6 0.6 40.7 19.1 40.7 41.8 0 22.7-18.1 41.2-40.7 41.8h-0.5v16.7c32.3 0 58.5-26.2 58.5-58.5 0-32.3-26.2-58.5-58.5-58.5z"/>
			</g>
		</g>
	</g>
</svg>